<svg width="128" height="128" viewBox="0 0 128 128" fill="none" xmlns="http://www.w3.org/2000/svg">
  <!-- Background Circle -->
  <circle cx="64" cy="64" r="64" fill="url(#gradient1)"/>
  
  <!-- Brain Icon -->
  <g transform="translate(32, 28)">
    <!-- Left hemisphere -->
    <path d="M 32 8 Q 8 8, 8 32 Q 8 56, 32 56 L 32 8" fill="white" opacity="0.95"/>
    
    <!-- Right hemisphere -->
    <path d="M 32 8 Q 56 8, 56 32 Q 56 56, 32 56 L 32 8" fill="white" opacity="0.85"/>
    
    <!-- Center line -->
    <line x1="32" y1="8" x2="32" y2="56" stroke="#7C3AED" stroke-width="2"/>
    
    <!-- Brain folds (left) -->
    <path d="M 16 20 Q 12 24, 16 28" stroke="#7C3AED" stroke-width="1.5" fill="none"/>
    <path d="M 20 32 Q 16 36, 20 40" stroke="#7C3AED" stroke-width="1.5" fill="none"/>
    
    <!-- Brain folds (right) -->
    <path d="M 48 20 Q 52 24, 48 28" stroke="#7C3AED" stroke-width="1.5" fill="none"/>
    <path d="M 44 32 Q 48 36, 44 40" stroke="#7C3AED" stroke-width="1.5" fill="none"/>
    
    <!-- Heart symbol at bottom -->
    <path d="M 32 60 L 28 64 Q 26 66, 28 68 Q 30 70, 32 68 Q 34 70, 36 68 Q 38 66, 36 64 Z" fill="#EC4899" opacity="0.9"/>
  </g>
  
  <!-- Gradient Definition -->
  <defs>
    <linearGradient id="gradient1" x1="0%" y1="0%" x2="100%" y2="100%">
      <stop offset="0%" style="stop-color:#7C3AED;stop-opacity:1" />
      <stop offset="100%" style="stop-color:#A855F7;stop-opacity:1" />
    </linearGradient>
  </defs>
</svg>
